PathFileType	4	(X/Y/Z)	C:/Users/opensim2020/Desktop/walking_exp_matlab/subject01_walking06_straight_02.trc	
DataRate	CameraRate	NumFrames	NumMarkers	Units	OrigDataRate	OrigDataStartFrame	OrigNumFrames	
100.00	100.00	7	43	mm	100.00	1536	171	
Frame#	Time	LFHD			RFHD			LBHD			RBHD			C7			T10			CLAV			STRN			RBAK			LSHO			LUPA			LELB			LFRM			LWRA			LWRB			LFIN			RSHO			RUPA			RELB			RFRM			RWRA			RWRB			RFIN			LASI			RASI			LPSI			RPSI			LTHI			LKNE			LTIB			LANK			LHEE			LTOE			RTHI			RKNE			RTIB			RANK			RHEE			RTOE			*39			*40			*41			*42			
		X1	Y1	Z1	X2	Y2	Z2	X3	Y3	Z3	X4	Y4	Z4	X5	Y5	Z5	X6	Y6	Z6	X7	Y7	Z7	X8	Y8	Z8	X9	Y9	Z9	X10	Y10	Z10	X11	Y11	Z11	X12	Y12	Z12	X13	Y13	Z13	X14	Y14	Z14	X15	Y15	Z15	X16	Y16	Z16	X17	Y17	Z17	X18	Y18	Z18	X19	Y19	Z19	X20	Y20	Z20	X21	Y21	Z21	X22	Y22	Z22	X23	Y23	Z23	X24	Y24	Z24	X25	Y25	Z25	X26	Y26	Z26	X27	Y27	Z27	X28	Y28	Z28	X29	Y29	Z29	X30	Y30	Z30	X31	Y31	Z31	X32	Y32	Z32	X33	Y33	Z33	X34	Y34	Z34	X35	Y35	Z35	X36	Y36	Z36	X37	Y37	Z37	X38	Y38	Z38	X39	Y39	Z39	X40	Y40	Z40	X41	Y41	Z41	X42	Y42	Z42	X43	Y43	Z43	

22	0.210	-1086.05725	692.64984	1660.68811	-1195.15845	653.60040	1666.03564	-1121.03711	804.09521	1616.00830	-1236.86755	767.18622	1621.73071	-1152.94897	838.10785	1425.23401	-1153.33374	878.18994	1132.22498	-1147.31738	695.37250	1354.69238	-1143.40198	654.87262	1200.16797	-1231.02759	892.87634	1232.84485	-987.70941	760.48254	1387.18445	-903.12683	822.85437	1210.07715	-904.89606	868.64337	1070.06995	-878.79474	868.45001	957.08539	-900.56482	840.10352	819.60510	-869.02521	888.99945	836.27429	-867.20282	873.01880	751.37659	-1301.04724	751.97076	1385.90417	-1406.97668	801.60229	1187.84253	-1415.15613	793.11749	1060.70715	-1443.63293	725.47681	957.87164	-1432.85791	602.47711	888.81116	-1460.18506	647.30597	865.44714	-1465.70959	581.22760	812.32660	-1050.21851	699.60864	924.81244	-1268.78638	715.10199	923.70239	-1085.23206	888.45331	937.10071	-1228.48804	897.88959	946.79547	-985.37195	661.64874	605.30524	-1009.41656	633.86981	476.77112	-1002.13281	623.97601	290.84106	-1055.42688	563.47455	77.00893	-1114.41199	591.24756	37.55680	-1041.93042	415.95117	82.44782	-1316.98608	840.37457	605.08179	-1292.30078	871.42773	446.36179	-1292.18738	974.35754	301.64893	-1240.64551	1055.59509	109.00326	-1186.65002	1108.26025	85.61935	-1243.08069	927.69910	39.08705	-1175.37805	670.68634	1699.68799	-3101.86377	1973.06116	1023.44208	-3140.65161	2012.51379	1022.03003			 
23	0.220	-1084.21790	683.21722	1659.90601	-1193.41565	644.39258	1665.41833	-1119.00366	794.69775	1615.04346	-1234.86743	757.94794	1620.95190	-1151.16345	828.37024	1424.10193	-1152.28442	867.44531	1131.07092	-1145.74658	685.28400	1354.05200	-1142.22119	644.40112	1199.57605	-1229.69055	882.76416	1231.85303	-986.04889	750.59344	1386.02722	-902.13129	812.78094	1208.52832	-904.47278	858.30280	1068.49011	-878.49463	858.29553	955.54651	-900.44147	829.95923	818.12866	-869.07983	878.98981	834.73993	-867.53949	863.08301	749.77319	-1299.41956	742.11005	1385.35168	-1405.44824	792.43915	1187.46436	-1413.77454	784.10406	1060.33691	-1442.11646	716.41034	957.43463	-1431.34973	593.39929	888.52563	-1458.91345	638.07501	865.35309	-1464.24341	571.91016	812.08423	-1049.77112	688.23944	924.21655	-1268.46143	704.30670	922.79523	-1084.39868	877.26678	936.22076	-1227.49438	887.01898	945.97382	-986.43219	648.80255	604.92468	-1010.49017	621.99988	476.11462	-1002.81915	615.45862	289.35501	-1056.62256	559.59729	74.81535	-1114.96973	589.03259	36.42346	-1044.92407	412.10345	77.55688	-1316.94031	830.59070	604.59839	-1292.67456	862.41827	445.72281	-1292.65613	968.13196	303.01318	-1241.52734	1053.35938	111.86285	-1187.85144	1106.63928	89.80671	-1243.16699	927.37274	39.04345	-1173.59302	661.45416	1699.05444	-3101.84985	1973.12646	1023.30969	-3140.67627	2012.57202	1021.96124			 
24	0.230	-1082.24451	673.66064	1659.10510	-1191.52405	635.15149	1664.80774	-1116.79053	785.20276	1614.10559	-1232.76758	748.77460	1620.22351	-1149.30701	818.56384	1423.09033	-1151.17834	856.20728	1129.76343	-1143.98621	675.17249	1353.45386	-1140.94897	633.77454	1199.11243	-1228.19507	872.49182	1230.82373	-984.24493	740.55688	1384.86072	-900.89282	802.46387	1207.08008	-903.76996	847.70557	1066.95032	-878.17926	847.74908	953.93506	-900.28491	819.26862	816.69165	-868.98407	868.17737	833.08112	-867.79254	852.36646	748.18762	-1297.57898	732.38202	1384.71240	-1403.67566	783.37451	1187.08398	-1412.28809	775.18622	1060.01050	-1440.69580	707.52344	957.14783	-1429.73816	584.51776	888.02234	-1457.52478	629.14447	864.78986	-1462.59644	562.94397	811.61530	-1049.11487	676.73419	923.55121	-1267.87805	693.36914	921.82153	-1083.41199	866.03595	935.30084	-1226.55090	875.99780	945.18658	-987.57318	635.95941	604.47223	-1011.43988	610.09344	475.58328	-1003.71655	607.44879	287.78043	-1058.40857	556.78638	72.66911	-1116.12598	587.82227	36.08126	-1047.85876	408.85226	70.74911	-1316.75781	820.30841	603.99017	-1293.15845	852.93549	445.06802	-1293.32397	961.60553	304.44080	-1242.66699	1051.06934	115.03848	-1188.94983	1105.37512	94.45735	-1243.38391	927.00732	39.02829	-1171.63452	652.23077	1698.54736	-3101.92847	1973.12732	1023.41003	-3140.67358	2012.51917	1021.97546			 
25	0.240	-1080.13196	664.12274	1658.73376	-1189.69727	625.95282	1664.52307	-1114.46106	775.61633	1613.39941	-1230.59131	739.59222	1619.65698	-1147.13354	808.95190	1422.26038	-1150.02844	845.53467	1128.71472	-1142.25415	664.99933	1352.94543	-1139.53650	623.10162	1198.85278	-1226.51489	862.16547	1230.01831	-982.25812	730.40204	1383.92444	-899.46832	791.91052	1205.57910	-902.91608	836.88446	1065.37207	-877.67975	836.68414	952.32257	-900.02924	807.81329	815.25226	-869.15369	857.14111	831.41504	-867.89618	841.05371	746.53851	-1295.72144	722.64813	1384.29968	-1401.91699	774.48248	1186.84424	-1410.61365	766.35150	1059.66357	-1439.16406	698.61700	956.69775	-1428.08655	575.90161	887.37140	-1456.00134	620.48657	864.26935	-1461.02942	554.31042	811.07947	-1048.62415	665.36603	923.09564	-1267.13501	682.28497	920.98193	-1082.20630	854.79028	934.43127	-1225.50830	864.75092	944.36542	-988.98138	623.46295	603.92303	-1011.99902	598.44324	475.13876	-1005.17175	599.99103	286.57599	-1059.73621	553.56213	72.42403	-1117.09509	586.23285	37.30493	-1049.63257	405.54233	63.85987	-1316.48767	809.53137	603.29657	-1293.43652	842.94855	444.29553	-1293.90222	954.67151	306.00928	-1243.83521	1048.24438	118.39971	-1190.55798	1102.92114	99.49490	-1243.60132	926.61835	39.03707	-1169.64148	643.05927	1697.97522	-3101.90771	1973.13940	1023.50397	-3140.78442	2012.64197	1022.11273			 
26	0.250	-1078.05005	654.32227	1658.86609	-1187.86523	616.63446	1664.67078	-1111.99902	765.84808	1613.14807	-1228.26038	730.35638	1619.46643	-1144.74353	799.16748	1421.78479	-1148.92383	834.58862	1128.04907	-1140.42310	654.75452	1352.85144	-1138.05591	612.54083	1198.95313	-1224.46265	851.89716	1229.39966	-980.12103	720.18958	1383.18713	-898.05164	781.00513	1204.19092	-902.38800	825.43207	1063.71228	-877.19904	825.10168	950.58441	-899.77869	795.73810	813.79474	-868.88391	845.26324	829.67078	-868.13477	828.93591	744.85669	-1293.90723	713.04840	1384.21692	-1400.02356	765.38702	1186.74268	-1408.78845	757.53973	1059.41296	-1437.40283	690.18274	956.20135	-1426.22241	567.54010	886.55591	-1454.68140	612.09247	863.79022	-1459.34741	546.08179	810.35693	-1047.76062	654.00635	922.89832	-1266.22937	671.04510	920.23413	-1080.88745	843.51660	933.77985	-1224.49255	853.51892	943.56299	-990.33917	611.62054	603.90387	-1012.01434	587.53687	475.12720	-1006.86572	592.09381	286.33295	-1059.47827	549.83295	72.76925	-1116.39197	584.19397	38.67255	-1050.56079	402.17664	59.08661	-1316.06458	798.24078	602.59442	-1293.56958	832.33221	443.52124	-1294.25769	947.27985	307.83524	-1245.49719	1045.38623	122.56703	-1192.10205	1100.30859	105.16068	-1243.95752	926.09161	39.10747	-1167.76404	633.86261	1697.96191	-3101.88550	1973.22510	1023.33197	-3140.73608	2012.60046	1021.97284			 
27	0.260	-1076.26746	644.30792	1659.37891	-1186.06775	607.20441	1665.22827	-1109.51709	755.88922	1613.49377	-1225.78992	720.96411	1619.79517	-1142.38794	789.10931	1421.94934	-1147.97729	823.73846	1128.06482	-1138.55212	644.50641	1353.08838	-1136.54395	602.01434	1199.38489	-1222.21191	841.57941	1229.12720	-977.96368	709.87476	1382.66504	-896.53503	769.87079	1202.89966	-901.09998	813.73938	1062.27576	-876.53766	813.04706	949.01428	-899.58466	783.36627	812.59595	-868.68005	832.90454	828.06836	-868.19324	816.28253	743.28082	-1292.01770	703.47992	1384.40076	-1397.70569	756.32941	1186.73352	-1406.80090	748.72992	1059.40186	-1435.78308	681.70087	955.97528	-1424.29907	559.45386	885.63684	-1453.04626	604.01501	863.16797	-1457.64001	538.32733	809.55804	-1047.01221	642.61493	922.92078	-1265.10193	659.70953	919.74396	-1079.70874	832.55432	933.76038	-1223.59277	842.19507	942.82056	-991.03723	600.41510	604.86749	-1011.47198	576.95386	475.93396	-1006.91339	583.55389	287.28665	-1058.60852	545.87195	72.34909	-1115.37964	582.11511	40.01582	-1051.32764	398.69254	54.27854	-1315.50659	786.23718	601.95184	-1293.63574	820.74445	442.83072	-1294.53357	939.31769	310.20566	-1246.80627	1041.52014	126.98564	-1193.60876	1096.73254	111.74372	-1244.21497	925.61316	39.20835	-1165.89648	624.56854	1698.44910	-3101.91309	1973.18042	1023.26312	-3140.57300	2012.60022	1021.99640			 
28	0.270	-1074.12317	634.17450	1660.04639	-1184.01025	597.52972	1665.90466	-1106.86841	745.91602	1614.16919	-1223.35291	711.44879	1620.51636	-1140.20044	778.68671	1422.48694	-1147.02539	813.01575	1128.36230	-1136.64697	634.26550	1353.73926	-1134.92090	591.46497	1200.17456	-1220.04663	831.31677	1229.19043	-975.87317	699.60339	1382.43469	-894.98975	758.45325	1201.83325	-900.36255	801.57092	1060.84509	-875.87927	800.49603	947.66882	-899.68579	770.46112	811.28760	-868.26526	819.71155	826.55554	-868.17426	802.92859	742.12878	-1290.19092	693.80103	1384.90454	-1395.70959	747.24823	1187.20349	-1404.63147	739.93774	1059.74866	-1433.95972	673.36768	955.86542	-1422.30481	551.70129	884.66785	-1451.32336	596.41638	862.61694	-1455.86084	531.17206	808.67389	-1045.92114	631.17029	923.39331	-1264.07654	648.23608	919.79926	-1078.69934	820.79492	934.05029	-1222.86523	830.90387	942.24786	-990.63397	589.36780	606.09271	-1011.11084	566.29437	477.26956	-1005.40131	574.21405	288.53732	-1057.86035	543.11292	72.28544	-1114.58911	580.63611	40.94919	-1051.00061	396.94226	49.35425	-1314.88684	773.43341	601.45636	-1293.84766	807.89850	442.30215	-1294.72253	930.49969	313.05539	-1248.30945	1037.15527	132.13716	-1194.79907	1092.34302	119.10185	-1244.55969	925.00934	39.16128	-1163.82568	614.91858	1699.35815	-3101.90698	1973.18494	1023.29645	-3140.64746	2012.50806	1022.00977			 
